<svg xmlns="http://www.w3.org/2000/svg" xmlns:xlink="http://www.w3.org/1999/xlink" zoomAndPan="magnify" preserveAspectRatio="xMidYMid meet" version="1.0" viewBox="-37.5 -37.5 450 450"><defs><g/><clipPath id="e6edfa0b3d"><path d="M 17.25 0 L 357.75 0 C 362.324219 0 366.710938 1.816406 369.949219 5.050781 C 373.183594 8.289062 375 12.675781 375 17.25 L 375 357.75 C 375 362.324219 373.183594 366.710938 369.949219 369.949219 C 366.710938 373.183594 362.324219 375 357.75 375 L 17.25 375 C 12.675781 375 8.289062 373.183594 5.050781 369.949219 C 1.816406 366.710938 0 362.324219 0 357.75 L 0 17.25 C 0 12.675781 1.816406 8.289062 5.050781 5.050781 C 8.289062 1.816406 12.675781 0 17.25 0 " clip-rule="nonzero"/></clipPath></defs><g clip-path="url(#e6edfa0b3d)"><rect x="-37.5" width="450" fill="var(--colors-c3)" y="-37.499999" height="449.999989" fill-opacity="1"/></g><g fill="#ffffff" fill-opacity="1"><g transform="translate(59.664207, 259.527526)"><g><path d="M 63.28125 0 C 54.550781 0 46.925781 -1.144531 40.40625 -3.4375 C 33.894531 -5.738281 27.828125 -9.476562 22.203125 -14.65625 C 16.429688 -19.832031 12.023438 -25.828125 8.984375 -32.640625 C 5.953125 -39.453125 4.4375 -46.628906 4.4375 -54.171875 C 4.4375 -61.722656 5.84375 -68.828125 8.65625 -75.484375 C 11.46875 -82.148438 15.28125 -88 20.09375 -93.03125 C 24.90625 -98.070312 30.53125 -102.070312 36.96875 -105.03125 C 43.40625 -107.988281 50.253906 -109.46875 57.515625 -109.46875 C 62.546875 -109.46875 67.207031 -108.800781 71.5 -107.46875 C 75.789062 -106.132812 80.304688 -103.914062 85.046875 -100.8125 L 85.046875 -119.90625 L 73.71875 -119.90625 L 81.9375 -148.109375 L 113.25 -148.109375 L 113.25 -28.203125 L 124.796875 -28.203125 L 116.578125 0 L 85.046875 0 L 85.046875 -24.203125 L 77.9375 0 Z M 85.046875 -28.203125 L 85.046875 -53.0625 C 85.046875 -57.800781 84.5625 -61.648438 83.59375 -64.609375 C 82.632812 -67.578125 80.972656 -70.316406 78.609375 -72.828125 C 76.085938 -75.492188 73.085938 -77.566406 69.609375 -79.046875 C 66.128906 -80.523438 62.46875 -81.265625 58.625 -81.265625 C 55.070312 -81.265625 51.738281 -80.597656 48.625 -79.265625 C 45.519531 -77.929688 42.851562 -76.082031 40.625 -73.71875 C 38.40625 -71.351562 36.628906 -68.578125 35.296875 -65.390625 C 33.972656 -62.210938 33.3125 -58.769531 33.3125 -55.0625 C 33.3125 -46.925781 35.972656 -40.414062 41.296875 -35.53125 C 46.628906 -30.644531 53.660156 -28.203125 62.390625 -28.203125 Z M 85.046875 -28.203125 "/></g></g></g><g fill="#ffffff" fill-opacity="1"><g transform="translate(300.429126, 113.964277)"><g><path d="M -63.28125 0 C -54.550781 0 -46.925781 1.144531 -40.40625 3.4375 C -33.894531 5.738281 -27.828125 9.476562 -22.203125 14.65625 C -16.429688 19.832031 -12.023438 25.828125 -8.984375 32.640625 C -5.953125 39.453125 -4.4375 46.628906 -4.4375 54.171875 C -4.4375 61.722656 -5.84375 68.828125 -8.65625 75.484375 C -11.46875 82.148438 -15.28125 88 -20.09375 93.03125 C -24.90625 98.070312 -30.53125 102.070312 -36.96875 105.03125 C -43.40625 107.988281 -50.253906 109.46875 -57.515625 109.46875 C -62.546875 109.46875 -67.207031 108.800781 -71.5 107.46875 C -75.789062 106.132812 -80.304688 103.914062 -85.046875 100.8125 L -85.046875 119.90625 L -73.71875 119.90625 L -81.9375 148.109375 L -113.25 148.109375 L -113.25 28.203125 L -124.796875 28.203125 L -116.578125 0 L -85.046875 0 L -85.046875 24.203125 L -77.9375 0 Z M -85.046875 28.203125 L -85.046875 53.0625 C -85.046875 57.800781 -84.5625 61.648438 -83.59375 64.609375 C -82.632812 67.578125 -80.972656 70.316406 -78.609375 72.828125 C -76.085938 75.492188 -73.085938 77.566406 -69.609375 79.046875 C -66.128906 80.523438 -62.46875 81.265625 -58.625 81.265625 C -55.070312 81.265625 -51.738281 80.597656 -48.625 79.265625 C -45.519531 77.929688 -42.851562 76.082031 -40.625 73.71875 C -38.40625 71.351562 -36.628906 68.578125 -35.296875 65.390625 C -33.972656 62.210938 -33.3125 58.769531 -33.3125 55.0625 C -33.3125 46.925781 -35.972656 40.414062 -41.296875 35.53125 C -46.628906 30.644531 -53.660156 28.203125 -62.390625 28.203125 Z M -85.046875 28.203125 "/></g></g></g></svg>